<svg xmlns="http://www.w3.org/2000/svg" version="1.1" viewBox="-5.0 -10.0 110.0 135.0">
 <path d="m48.535 38.988c-2.8008 0.69531-5.1641 2.4414-6.6562 4.918-1.4883 2.4727-1.9258 5.3789-1.2305 8.1836 0.69531 2.8008 2.4414 5.1641 4.918 6.6562 1.707 1.0273 3.6172 1.5547 5.5547 1.5547 0.875 0 1.7539-0.10547 2.625-0.32422 5.7852-1.4375 9.3242-7.3125 7.8867-13.098s-7.3086-9.3242-13.098-7.8867zm4.7305 19.043c-4.7148 1.1719-9.5039-1.7109-10.676-6.4258-0.56641-2.2852-0.21094-4.6523 1.0039-6.668s3.1406-3.4414 5.4258-4.0078c0.71094-0.17578 1.4219-0.26172 2.125-0.26172 3.9531 0 7.5547 2.6836 8.5508 6.6875 1.1719 4.7148-1.7109 9.5039-6.4258 10.676z"/>
 <path d="m84.148 43.543c1.1641-4.6719-0.34766-9.2773-2.1523-12.031-2.7539-4.1914-8.8203-7.6055-15.633-5.1836-2.2734 0.80859-3.9102 1.8789-5.0391 2.8398-0.13672-2.2461-0.96875-5.4258-3.9336-8.7578-2.8711-3.2266-7.3086-4.9258-11.863-4.5352-4.5547 0.38672-8.5156 2.7539-10.855 6.4961-2.1484 3.4297-2.7227 6.6836-2.5508 9.4141-3.6914-0.41016-8.5781 0.33984-12.992 5.2109-3.4961 3.8555-3.8945 8.1094-3.6094 11 0.41797 4.2578 2.5781 8.3164 5.6445 10.594 4.3555 3.2344 8.418 3.8203 11.387 3.2695-1.6367 2.7891-3.1367 7.2031-1.2578 12.641 1.2695 3.6719 3.9883 6.5977 7.6602 8.2344 2.1484 0.96094 4.5195 1.4414 6.8945 1.4414 2.2461 0 4.4922-0.42969 6.5508-1.2969 3.3672-1.4141 6.0039-4.1758 7.5391-7.5742 0.66797 0.39844 1.3828 0.78125 2.1523 1.1523 4.1953 2.0312 9.1172 1.9766 13.168-0.14062 4.0977-2.1406 6.8125-6.1836 7.6406-11.387 0.66797-4.2031-0.21875-7.8984-2.6445-10.988-0.68359-0.87109-1.4453-1.6367-2.2344-2.2969 3.1914-1.9727 5.3047-4.7578 6.1406-8.1055zm-25.223 28.652c-2.7383-2.1797-3.9727-4.6992-3.6797-7.5195 0.10156-0.98047 0.94531-1.8242 1.8398-1.8438h0.03125c1.0508 0 1.8516 1.2031 2.1523 3.2266 0.30859 2.1055 0.17188 4.1992-0.34375 6.1367zm17.328-21.84c-0.003906 0.003906-0.007812 0.003906-0.011718 0.007812-2.4492-1.5625-4.8906-2.2695-6.0938-2.3711-1.5898-0.12891-2.9531 0.23828-3.8242 1.043-0.61328 0.5625-0.93359 1.293-0.93359 2.1055 0.003906 1.2031 0.63672 2.293 1.6875 2.918 1.9258 1.1367 4.9609 0.67578 9.0273-1.3672 0.91016 0.67969 1.793 1.5078 2.5625 2.4844 2.0664 2.6367 2.8203 5.8086 2.2422 9.4414-0.92969 5.8477-4.0977 8.6289-6.5898 9.9297-3.4414 1.7969-7.8008 1.8398-11.371 0.10938-0.83203-0.40234-1.5977-0.82031-2.2969-1.2539 0.75-2.3945 0.98438-5.0078 0.59375-7.6406-0.6875-4.6484-3.375-4.9688-4.2031-4.9336-1.9141 0.039063-3.5781 1.6367-3.7852 3.6367-0.39453 3.7617 1.2812 7.0195 4.9805 9.7266-1.3125 3.0781-3.6367 5.5859-6.6289 6.8398-3.7344 1.5664-8.1641 1.5195-11.852-0.12891-2.2344-1-5.1914-3.0352-6.5859-7.0664-2.7188-7.8594 2.7109-13.273 3.2188-13.754 0.015625-0.015625 0.027344-0.027343 0.042969-0.039062 0.39844-0.37891 0.41797-1.0078 0.042968-1.4062-0.375-0.40234-1.0039-0.42578-1.4062-0.054688-0.007812 0.007813-0.023437 0.023438-0.042968 0.039063-1.5469 1.4258-6.6133 2.8672-12.68-1.6445-2.5859-1.9219-4.4883-5.5273-4.8477-9.1836-0.24219-2.4883 0.097656-6.1484 3.1016-9.4609 4.0469-4.4609 8.5273-4.9727 11.785-4.5 0.50781 2.4492 1.5469 4.2852 2.2812 5.1641 1.3516 1.625 3.1289 2.5156 4.6328 2.3281 1.0469-0.13281 1.8945-0.77344 2.3828-1.8047 0.71875-1.5117 0.097656-3.8828-3.8008-6-0.36719-0.19922-1.7422-0.90234-3.7148-1.3789-0.24609-2.4688 0.17969-5.5078 2.1914-8.7188 2.0078-3.2031 5.4062-5.2305 9.3281-5.5625 3.9336-0.33203 7.7461 1.1172 10.203 3.8711 4.6289 5.1953 3.2891 9.8008 3.2266 10.012-0.15625 0.48828 0.085937 1.0078 0.55078 1.2148 0.46875 0.20703 1.0195 0.023438 1.2734-0.42188 0.015625-0.027344 1.6094-2.7422 6.0859-4.3359 5.7969-2.0625 10.957 0.83594 13.293 4.3984 1.5 2.2891 2.8945 6.3984 1.8867 10.449-0.77734 3.1055-2.7773 5.5586-5.9531 7.2969zm-2.1406 1.0703c-3.8359 1.7188-5.457 1.2461-6.0195 0.91406-0.65234-0.38672-0.70312-1.0156-0.70703-1.1992 0-0.25 0.089843-0.44922 0.28906-0.63281 0.37891-0.34766 1.0547-0.54297 1.8594-0.54297 0.14453 0 0.29297 0.007812 0.44531 0.019531 0.81641 0.066406 2.4023 0.51172 4.1328 1.4414zm-39.531-17.098c1.2422 0.37891 2.0898 0.8125 2.3516 0.95703 2.3789 1.2891 3.2812 2.6797 2.9492 3.3828-0.26172 0.54688-0.59766 0.64844-0.82812 0.67578-0.80469 0.09375-1.9688-0.56641-2.8477-1.6211-0.48438-0.58203-1.1719-1.7773-1.625-3.3945z"/>
</svg>